<?xml version="1.0" encoding="UTF-8" standalone="no"?>
<!-- Created with Inkscape (http://www.inkscape.org/) -->

<svg
   width="512"
   height="512"
   viewBox="0 0 512 512"
   version="1.1"
   id="svg5"
   xmlns="http://www.w3.org/2000/svg"
   xmlns:svg="http://www.w3.org/2000/svg">
  <defs
     id="defs2" />
  <g
     id="layer1"
     style="display:inline">
    <path
       style="fill:#ffcc00;stroke-width:0.849558"
       d="m 67.607506,421.15206 c -14.71226,-3.96219 -25.89571,-16.08041 -28.28082,-30.64468 -0.50065,-3.05713 -0.81522,-55.53133 -0.80922,-134.9837 0.0107,-140.82159 -0.1336,-136.25342 4.59743,-145.58965 2.79677,-5.51915 10.30766,-13.057145 15.76644,-15.823319 9.39899,-4.762829 7.763,-4.675529 87.619274,-4.675529 40.51494,0 74.22082,0.213854 74.90196,0.475232 0.68114,0.261377 9.21861,10.004221 18.97214,21.650766 l 17.7337,21.17552 88.35399,0.0194 c 55.39366,0.0121 90.414,0.34061 93.8761,0.88048 16.00567,2.49588 29.23497,15.33603 32.26559,31.31649 1.14668,6.04637 1.18272,218.56587 0.0382,225.55433 -2.41568,14.75099 -13.64409,26.77984 -28.64506,30.6871 -7.11988,1.85449 -369.497884,1.81366 -376.389794,-0.0424 z"
       id="path21" />
  </g>
  <g
     id="layer2"
     style="display:none">
    <path
       id="path565"
       style="fill:#ffcc00;stroke-width:0.849558"
       d="m 146.5,89.435547 c -79.85627,0 -78.220151,-0.08705 -87.619141,4.675781 -5.45878,2.76617 -12.968855,10.303112 -15.765625,15.822262 -4.73103,9.33623 -4.586956,4.76826 -4.597656,145.58985 -0.006,79.45237 0.307944,131.92724 0.808594,134.98437 2.38511,14.56427 13.56899,26.68234 28.28125,30.64453 6.89191,1.85606 369.270748,1.89746 376.390628,0.043 15.00097,-3.90726 26.22885,-15.93651 28.64453,-30.6875 1.14452,-6.98846 1.10762,-219.50832 -0.0391,-225.55469 -3.03062,-15.98046 -16.25996,-28.82052 -32.26563,-31.3164 -3.4621,-0.53987 -38.48134,-0.86876 -93.875,-0.88086 L 258.10938,132.73633 240.375,111.56055 C 230.62147,99.913997 222.08348,90.171536 221.40234,89.910156 220.7212,89.648776 187.01494,89.435547 146.5,89.435547 Z m 31.94569,93.277253 c 2.77796,-0.006 5.54384,0.61822 8.14258,1.87109 2.39852,1.15634 5.71776,4.37596 45.60742,44.26563 39.73868,39.73867 43.11278,43.21517 44.23242,45.56055 1.7092,3.58038 2.29559,7.41798 1.6875,11.03515 -1.53438,9.12718 -9.16055,15.52735 -18.50195,15.52735 H 256.975 l -0.11134,32.32421 -0.10937,32.32421 -1.04493,2.6875 c -2.7689,7.12658 -8.47293,12.115 -15.67187,13.70899 -2.39734,0.53081 -5.46635,0.60722 -20.6582,0.51172 -17.3213,-0.10888 -17.87313,-0.13613 -18.91993,-0.91797 -0.59307,-0.44296 -1.4418,-1.28974 -1.88476,-1.88281 -0.78982,-1.05748 -0.80845,-1.58304 -1,-27.15625 l -0.19531,-26.07618 -1.18555,-1.92187 c -1.33324,-2.16071 -4.31692,-4.20265 -6.71875,-4.59961 -1.91477,-0.31647 -20.1692,-0.31647 -22.08399,0 -2.40181,0.39696 -5.38355,2.4389 -6.71679,4.59961 l -1.18555,1.92187 -0.19531,26.07618 c -0.19154,25.57321 -0.21213,26.09877 -1.00195,27.15625 -0.44296,0.59307 -1.28973,1.43985 -1.88282,1.88281 -1.04919,0.78362 -1.57191,0.80909 -19.3125,0.88867 -16.91772,0.0759 -18.43868,0.0274 -21.08788,-0.67188 -4.00199,-1.05633 -6.46662,-2.49715 -9.6836,-5.66015 -3.03904,-2.98805 -5.17989,-6.80613 -5.97851,-10.66406 -0.29009,-1.40136 -0.427736,-12.15813 -0.427736,-33.30079 V 300.97256 H 97.26601 c -9.35478,0 -16.980275,-6.39449 -18.515625,-15.52735 -0.60809,-3.61717 -0.0217,-7.45477 1.6875,-11.03515 1.11964,-2.34538 4.493762,-5.82188 44.232415,-45.56055 39.73868,-39.73866 43.21517,-43.11083 45.56055,-44.23047 2.64798,-1.2641 5.43689,-1.90031 8.21484,-1.90624 z" />
  </g>
</svg>
